<?xml version="1.0" standalone="no"?>
<!DOCTYPE svg PUBLIC "-//W3C//DTD SVG 20010904//EN"
 "http://www.w3.org/TR/2001/REC-SVG-20010904/DTD/svg10.dtd">
<svg version="1.0" xmlns="http://www.w3.org/2000/svg"
 width="552.000000pt" height="552.000000pt" viewBox="0 0 552.000000 552.000000"
 preserveAspectRatio="xMidYMid meet">
<metadata>
Created by potrace 1.14, written by Peter Selinger 2001-2017
</metadata>
<g transform="translate(0.000000,552.000000) scale(0.100000,-0.100000)"
fill="#000000" stroke="none">
<path d="M1367 5492 c-15 -16 -31 -42 -35 -58 -5 -21 -8 -5219 -3 -5350 1 -12
14 -36 30 -53 26 -28 35 -31 89 -31 57 0 62 2 90 35 l29 36 0 608 c0 334 2
612 5 617 5 7 894 12 953 5 7 -1 10 -208 10 -602 -1 -553 1 -603 17 -629 45
-74 103 -79 261 -20 422 157 724 376 972 705 44 58 75 105 75 113 1 4 12 21
25 37 l25 30 1 -40 c0 -22 2 -49 4 -60 2 -11 7 -49 10 -85 3 -36 8 -76 10 -90
7 -42 17 -243 20 -404 4 -224 20 -256 132 -256 62 0 91 15 112 58 14 27 14
626 -3 2452 -3 366 -4 369 -65 415 -25 19 -46 20 -603 25 l-577 5 106 55 c405
211 695 506 891 907 99 203 189 498 218 713 3 25 7 47 9 50 2 3 6 41 10 85 4
44 9 83 11 87 7 12 18 269 18 434 0 143 -2 163 -20 187 -43 59 -103 60 -254 4
-87 -32 -247 -102 -295 -129 -11 -6 -45 -25 -75 -41 -257 -140 -498 -365 -678
-634 -34 -51 -62 -94 -62 -97 0 -3 -13 -27 -28 -53 -24 -42 -61 -120 -108
-228 -19 -45 -80 -239 -104 -335 -22 -88 -54 -271 -65 -375 -4 -33 -8 -73 -11
-90 -8 -62 -16 -204 -18 -324 l-2 -125 -29 -12 c-17 -7 -43 -14 -60 -17 -16
-3 -88 -19 -160 -35 -71 -17 -152 -33 -179 -37 -27 -3 -52 -8 -55 -10 -8 -5
-264 -34 -364 -41 l-82 -6 1 1271 c1 1366 3 1302 -49 1343 -14 11 -40 18 -73
18 -42 0 -55 -4 -77 -28z m2608 -379 c-12 -218 -18 -267 -62 -538 -9 -60 -45
-193 -78 -295 l-35 -105 -78 1 c-42 1 -239 5 -436 8 -198 4 -362 8 -364 10 -5
6 59 157 80 188 10 14 18 29 18 33 0 8 70 127 80 135 3 3 23 32 45 64 87 128
286 318 440 418 139 90 339 193 383 197 11 1 12 -23 7 -116z m-388 -1174 l103
-1 -27 -47 c-175 -302 -435 -533 -798 -708 -128 -61 -137 -60 -130 6 2 20 7
90 10 156 3 66 8 136 10 155 2 19 6 58 9 85 2 28 7 62 10 75 6 26 13 62 22
120 5 31 27 119 40 158 3 11 65 12 326 8 178 -3 369 -6 425 -7z m370 -1461 c4
-591 4 -751 -1 -755 -3 -3 -13 14 -23 38 -31 78 -120 255 -164 326 -152 242
-335 422 -579 567 l-95 56 430 0 430 0 2 -232z m-1622 188 c123 -14 155 -19
240 -38 50 -10 101 -21 114 -24 13 -3 31 -9 40 -13 9 -5 18 -9 21 -8 31 4 276
-107 360 -163 25 -17 53 -33 63 -36 9 -4 17 -10 17 -13 0 -4 21 -23 47 -41 56
-40 179 -162 219 -217 15 -21 33 -43 40 -48 48 -42 239 -418 256 -505 3 -12
-135 -14 -1089 -15 l-1093 0 -1 25 c-1 30 -1 967 0 1026 l1 41 113 12 c61 7
146 15 187 18 41 2 76 6 77 6 4 5 343 -2 388 -7z m1477 -1375 c-5 -26 -73
-158 -121 -239 -116 -193 -241 -337 -426 -492 -52 -43 -207 -138 -300 -184
-73 -36 -183 -86 -189 -86 -2 0 1 992 3 1005 1 7 181 10 519 9 416 0 516 -3
514 -13z"/>
<path d="M2623 1875 c-60 -26 -87 -99 -58 -159 37 -78 130 -93 191 -32 29 29
34 41 34 79 0 90 -85 147 -167 112z"/>
</g>
</svg>
