<?xml version="1.0" standalone="no"?>
<!DOCTYPE svg PUBLIC "-//W3C//DTD SVG 20010904//EN"
 "http://www.w3.org/TR/2001/REC-SVG-20010904/DTD/svg10.dtd">
<svg version="1.0" xmlns="http://www.w3.org/2000/svg"
 width="292.000000pt" height="552.000000pt" viewBox="0 0 292.000000 552.000000"
 preserveAspectRatio="xMidYMid meet">

<g transform="translate(0.000000,552.000000) scale(0.100000,-0.100000)"
fill="#FFFFFF" stroke="none">
<path d="M64 5486 l-34 -34 0 -1348 c0 -4172 -1 -4023 15 -4054 20 -39 43 -50
108 -50 59 0 86 18 106 73 7 19 11 227 11 628 l0 599 480 0 480 0 0 -590 c0
-641 -1 -635 55 -678 44 -35 102 -29 240 23 321 121 567 276 774 485 90 91
202 231 266 332 32 51 45 59 45 31 0 -10 7 -73 15 -141 8 -68 19 -250 25 -405
12 -292 15 -310 59 -344 9 -7 44 -13 78 -13 56 0 64 3 93 32 l32 31 -6 1356
c-4 746 -9 1375 -12 1398 -4 30 -16 54 -43 85 l-39 43 -583 3 -584 3 113 59
c410 218 685 496 875 882 137 279 209 525 252 868 20 154 38 493 33 604 -4 88
-5 89 -42 123 -35 32 -41 34 -89 30 -70 -6 -222 -63 -393 -147 -434 -213 -726
-506 -934 -935 -164 -340 -259 -787 -261 -1225 0 -143 -2 -161 -18 -169 -28
-15 -252 -67 -411 -95 -131 -23 -413 -56 -475 -56 l-25 0 0 1265 c0 1046 -2
1271 -14 1298 -18 45 -56 67 -112 67 -39 0 -51 -5 -80 -34z m2611 -383 c-8
-158 -39 -415 -65 -545 -19 -89 -73 -281 -99 -350 l-11 -28 -207 0 c-115 0
-313 3 -441 7 -271 7 -250 -13 -167 158 90 187 200 339 347 481 170 165 308
256 588 386 63 30 62 31 55 -109z m-296 -1169 c7 -6 -36 -80 -95 -164 -130
-187 -316 -359 -515 -478 -83 -49 -306 -162 -321 -162 -22 0 2 396 36 585 13
73 40 190 51 223 4 11 78 13 423 7 229 -4 419 -9 421 -11z m280 -1726 c0 -374
-3 -497 -11 -478 -149 340 -312 579 -513 751 -57 49 -217 158 -301 206 l-39
22 433 1 432 0 -1 -502z m-1509 443 c628 -94 1037 -417 1270 -1001 22 -55 40
-103 40 -105 0 -3 -493 -5 -1095 -5 l-1095 0 0 549 0 549 118 11 c64 7 126 13
137 15 11 2 128 4 260 4 188 1 267 -3 365 -17z m1337 -1418 c-194 -418 -502
-720 -917 -903 -50 -22 -93 -40 -95 -40 -3 0 -5 227 -5 505 l0 505 524 0 525
0 -32 -67z"/>
<path d="M1323 1875 c-60 -26 -87 -98 -58 -159 21 -44 59 -66 116 -66 33 0 47
6 75 34 29 29 34 41 34 79 0 53 -27 93 -76 113 -41 17 -50 17 -91 -1z"/>
</g>
</svg>
